<svg xmlns="http://www.w3.org/2000/svg" width="42.489" height="42.489" viewBox="0 0 42.489 42.489">
    <g id="Grupo_11521" data-name="Grupo 11521" transform="translate(-646.235 -367.68)">
        <g id="Grupo_11516" data-name="Grupo 11516" transform="translate(646.235 367.68)">
            <path id="Caminho_30598" data-name="Caminho 30598" d="M566.427,1752.657l-10.872-6.276v12.553Z"
                transform="translate(-548.029 -1722.723)" fill="#0054b5" />
            <path id="Caminho_30599" data-name="Caminho 30599" d="M1368.984,1746.382v12.554l-10.871-6.278Z"
                transform="translate(-1339.714 -1722.724)" fill="#002663" />
            <path id="Caminho_30600" data-name="Caminho 30600"
                d="M18.4,469.612,7.526,463.335,0,467.68,18.4,478.3,36.8,467.68l-7.526-4.345Z"
                transform="translate(-0.001 -457.058)" fill="#1d60ee" />
            <path id="Caminho_30601" data-name="Caminho 30601" d="M804.66,1827.17l-7.706,4.449-7.706-4.449,7.706-4.449Z"
                transform="translate(-778.556 -1798.029)" fill="#2f2f2f" />
            <path id="Caminho_30602" data-name="Caminho 30602"
                d="M0,805.327l7.526,4.345V797.119L18.4,803.4h0v-8.689L0,784.083Z" transform="translate(0 -773.461)"
                fill="#0d2c6e" />
            <path id="Caminho_30603" data-name="Caminho 30603"
                d="M1358.111,794.705v8.689l10.872-6.276v12.553l7.527-4.345V784.083Z"
                transform="translate(-1339.713 -773.461)" fill="#1954d4" />
            <path id="Caminho_30604" data-name="Caminho 30604" d="M789.258,2160.035l7.706,4.449v-8.9l-7.706-4.449Z"
                transform="translate(-778.566 -2121.995)" fill="#323333" />
            <path id="Caminho_30605" data-name="Caminho 30605" d="M1358.09,2155.585v8.9l7.706-4.449v-8.9Z"
                transform="translate(-1339.692 -2121.995)" fill="#1a1a1a" />
            <path id="Caminho_30606" data-name="Caminho 30606" d="M796.954,0l-7.706,4.449,7.706,4.449,7.706-4.449Z"
                transform="translate(-778.556 0.005)" fill="#404040" />
            <path id="Caminho_30607" data-name="Caminho 30607" d="M789.247,328.416v3.656l7.706,4.449v-3.656Z"
                transform="translate(-778.555 -323.966)" fill="#313131" />
            <path id="Caminho_30608" data-name="Caminho 30608" d="M1365.76,328.41v3.656l-7.706,4.449v-3.656Z"
                transform="translate(-1339.656 -323.961)" fill="#151515" />
        </g>
    </g>
</svg>