<svg xmlns="http://www.w3.org/2000/svg" width="345.488" height="345.488" viewBox="0 0 345.488 345.488">
  <g id="Grupo_11565" data-name="Grupo 11565" transform="translate(-844 -533.57)">
    <path id="Caminho_35707" data-name="Caminho 35707" d="M83.653,87.256c36.14-36.372,25.793-59.168,50.521-76.009,38.05-25.912,109.064-3.619,150.96,32.023,51.313,43.653,77.788,123.359,47.629,195.467-32.117,76.792-116.624,116.655-192.029,104.641C73.4,332.65,7.2,279.58.57,215.929c-.719-6.9-3.892-44.193,18.365-76.346,18.4-26.577,36.07-23.5,64.717-52.327" transform="translate(844 533.57)" fill="#caddff"/>
    <g id="Grupo_11559" data-name="Grupo 11559" transform="translate(521.496 -595.066)">
      <path id="Caminho_31723" data-name="Caminho 31723" d="M500.677,872.34A33.412,33.412,0,0,1,489.423,888.4c-12.172,9.841-28.6,11.381-43.678,10.39-7.495-.5-14.893-1.986-21.59-5.488a53.644,53.644,0,0,1-15.1-11.953c-9.329-10.473-14.719-23.712-17.267-37.378-3-16.088-2.519-32.709-1.948-48.992.241-6.751.752-13.555,2.556-20.1a39.123,39.123,0,0,1,3.729-9.11,29.542,29.542,0,0,1,2.714-3.97c.527-.647,1.089-1.272,1.669-1.865.188-.187.375-.375.563-.556a1.95,1.95,0,0,1-.179-.2,79.6,79.6,0,0,0-18.284-.316c-1.443.135-1.774-2.1-.323-2.232,18.051-1.684,38.671,2.02,50.4,17.118a35.434,35.434,0,0,1,5.007,8.8c1.249,3.164,2.128,6.449,3.264,9.651a25.277,25.277,0,0,0,4.788,8.743,20.532,20.532,0,0,0,6.676,4.586c4.946,2.309,10.359,3.587,15.066,6.412a15.678,15.678,0,0,1,5.45,5.21c1.842,3.052,2.09,6.51,2.45,9.968s1.21,6.57,3.774,9.022a34.408,34.408,0,0,0,7.57,4.938,35.641,35.641,0,0,1,7.661,5.075,23.009,23.009,0,0,1,5.315,7.667,27.582,27.582,0,0,1,.97,18.509" transform="translate(147.345 414.996)"/>
      <path id="Caminho_31724" data-name="Caminho 31724" d="M462.255,826.39a4.356,4.356,0,0,1-2.142,2.773,47.193,47.193,0,0,1-7.255,4.234c-10.517,5.005-22.4,7.074-33.9,8.269-5.977.625-11.984.985-17.982,1.316q-4.421.235-8.841.489c-2.887.165-5.781.45-8.675.525a15.544,15.544,0,0,1-7.767-1.391c-2.338-1.247-3.976-3.314-5.977-5.007-2.128-1.8-4.713-2.992-6.922-4.7a82.189,82.189,0,0,1-6.526-5.81,1.319,1.319,0,0,1-.262-.354,2.932,2.932,0,0,1-.527-2.059,1.147,1.147,0,0,1,.683-.91c5.233-2.211,11.014-2.647,16.592-3.362q7.8-.99,15.622-2a3.535,3.535,0,0,0,0-.708,13.108,13.108,0,0,0-.735-3.637c-1.488-4.519-4.315-9.518-1.241-14.043a13.1,13.1,0,0,1,5.916-4.324,42.892,42.892,0,0,1,8.644-2.533,45.5,45.5,0,0,1,18.08.3,1.185,1.185,0,0,1,.271,2.225c.391,1.089.783,2.18,1.189,3.254a179.055,179.055,0,0,0,7.292,16.54c.518,1.03.977,2.737,2.278,2.939a42.177,42.177,0,0,0,4.263.15,87.639,87.639,0,0,1,8.735.872,81.452,81.452,0,0,1,17.268,4.421c1.1.427,2.074,1.224,1.924,2.525" transform="translate(131.022 437.768)" fill="#fff"/>
      <path id="Caminho_31725" data-name="Caminho 31725" d="M427.352,809.5c-.985,1.828-2.03,3.818-3.789,5.007a5.433,5.433,0,0,1-5.413.647c-.887-.452-1.572-1.5-2.519-1.767-1.007-.285-.256.662.008,1.053a4.859,4.859,0,0,1,.706,5.2,7.953,7.953,0,0,1-4.684,3.722,49.244,49.244,0,0,1-8.051,2.406,12.684,12.684,0,0,1-1.466.827c-3.849,1.789-8.487,2.1-12.676,2.217a37.753,37.753,0,0,1-13.178-1.744c-7.165-2.427-13.427-8.119-15.036-15.7a1.072,1.072,0,0,1,.054-.624,29.029,29.029,0,0,1-1.428-14.606,27.718,27.718,0,0,1,1.443-5.5,44.338,44.338,0,0,1,2.789-5.494c1.1-2.03,1.451-4.33,2.338-6.451a22.6,22.6,0,0,1,2.946-5.082,23.184,23.184,0,0,1,6.1-5.548,1.152,1.152,0,0,1-.481-1.722c3.481-5.81,10.863-6.239,16.9-6.081,5.766.156,11.554-.376,17.306.023a28.079,28.079,0,0,1,7.946,1.593c2.442.918,5.254,2.353,6.585,4.707a11.233,11.233,0,0,1,1.105,4.2c.218,1.632.421,3.271.593,4.909a56.1,56.1,0,0,1,.279,9.788,25.722,25.722,0,0,1-4.9,13.915c.691.181,1.391.362,2.09.541a9.177,9.177,0,0,1,3.97,1.024,1.128,1.128,0,0,1,.6,1.451,4.816,4.816,0,0,1,.668.977c1.022,2.03.2,4.255-.8,6.112" transform="translate(133.585 417.427)" fill="#fff"/>
      <path id="Caminho_31726" data-name="Caminho 31726" d="M383.7,760.384c-5.181.908-9.59,4.157-13.135,7.915a33.881,33.881,0,0,0-7.491,12.558c-.432,1.306,1.532,2.211,1.971.889a32.313,32.313,0,0,1,6.794-11.648c3.179-3.489,7.312-6.73,12.063-7.563,1.361-.238,1.172-2.39-.2-2.15" transform="translate(135.786 417.578)"/>
      <path id="Caminho_31727" data-name="Caminho 31727" d="M389.126,818.7c-4.721.088-9.6.17-14.061-1.625a22.654,22.654,0,0,1-9-6.7,26.092,26.092,0,0,1-4.881-22.731,32.679,32.679,0,0,1,6.464-12.972c.874-1.079-.786-2.462-1.663-1.381-5.822,7.187-9,16.827-7.333,26.052a26.606,26.606,0,0,0,14.34,19.184c5.119,2.426,10.786,2.429,16.332,2.325,1.392-.026,1.184-2.177-.2-2.15" transform="translate(132.761 425.473)"/>
      <path id="Caminho_31728" data-name="Caminho 31728" d="M374.346,773.488a1.093,1.093,0,0,0-1.521.142c-.106.135-.215.269-.333.4-.065.072-.132.139-.2.209a6.023,6.023,0,0,1-.9.7,3.942,3.942,0,0,1-.769.4,6.889,6.889,0,0,1-1.022.341c-.178.036-.271.052-.367.067q-.254.039-.514.059c-.171.013-.344.019-.517.018-.2-.008-.277-.013-.354-.021q-.286-.029-.567-.083c-.075-.015-.15-.034-.225-.049a1.969,1.969,0,0,1-.311-.112,1.142,1.142,0,0,0-.646-1.055,1.088,1.088,0,0,0-1.428.541c-.921,2.667,2.964,3.111,4.705,2.863a7.925,7.925,0,0,0,5.114-2.892,1.1,1.1,0,0,0-.142-1.521" transform="translate(136.742 425.696)"/>
      <path id="Caminho_31729" data-name="Caminho 31729" d="M374.224,767.276a7.186,7.186,0,0,0-7.514.306,1.081,1.081,0,0,0,1.236,1.772,5.162,5.162,0,0,1,6.088.355,7.611,7.611,0,0,1,2.5,6.388,14.678,14.678,0,0,1-2.983,7.47,34.627,34.627,0,0,1-2.622,3.246q-.765.843-1.581,1.635c-.243.235-.486.466-.737.691-.06.059-.125.112-.187.168a1.163,1.163,0,0,0-1.658,1.3c.3,1.215,1.81,1.2,2.68.636a18.209,18.209,0,0,0,3.145-3.054,27.022,27.022,0,0,0,4.883-7.144c2.033-4.643,1.692-11.1-3.251-13.774" transform="translate(137.834 421.36)"/>
      <path id="Caminho_31730" data-name="Caminho 31730" d="M389.622,774.428a15.117,15.117,0,0,1-5.892,1.537,4.786,4.786,0,0,1-3.947-1.94c-.768-1.162-2.537.078-1.771,1.236a6.774,6.774,0,0,0,5.263,2.83,16.41,16.41,0,0,0,7.087-1.634c1.29-.518.551-2.55-.74-2.03" transform="translate(145.122 425.892)"/>
      <path id="Caminho_31731" data-name="Caminho 31731" d="M377.676,784.4a1.089,1.089,0,0,0-1.384-.646,12.67,12.67,0,0,1-9.925.649,1.107,1.107,0,0,0-1.428.54,1.09,1.09,0,0,0,.54,1.43,14.768,14.768,0,0,0,11.552-.589,1.114,1.114,0,0,0,.646-1.384" transform="translate(136.944 432.271)"/>
      <path id="Caminho_31732" data-name="Caminho 31732" d="M397.373,772.664c-4.555-4.987-11.722-8.22-18.279-5.1-1.247.593-.517,2.626.738,2.03,5.625-2.674,11.823-.011,15.768,4.309a1.12,1.12,0,0,0,1.5.269,1.087,1.087,0,0,0,.267-1.5" transform="translate(145.515 421.339)"/>
      <path id="Caminho_31733" data-name="Caminho 31733" d="M436.577,821.647c-.857.466-1.73.924-2.6,1.368-14.539-6.194-29.77-4.819-29.98-4.8a1.116,1.116,0,0,1-1.158-.714l-8.735-22.41a1.126,1.126,0,1,1,2.1-.82l8.435,21.636c3.7-.248,18.268-.706,31.943,5.744" transform="translate(155.333 438.493)" fill="#fff"/>
      <path id="Caminho_31734" data-name="Caminho 31734" d="M409.47,788.809a7.212,7.212,0,0,0-6.427-5.507,9.68,9.68,0,0,0-8.724,3.644c-.841,1.1.817,2.486,1.663,1.379a7.5,7.5,0,0,1,5.687-2.926,5.387,5.387,0,0,1,5.507,3.23,7.509,7.509,0,0,1-1.185,6.686c-1.345,2.005-3.367,4.283-5.731,5.051a4.664,4.664,0,0,1-5.706-3.049c-.429-1.327-2.457-.58-2.03.739a6.922,6.922,0,0,0,6.539,4.669c3.231,0,5.964-2.675,7.852-5.031,2.007-2.507,3.3-5.654,2.555-8.884" transform="translate(154.352 431.993)"/>
      <path id="Caminho_31735" data-name="Caminho 31735" d="M403.676,788.936a1.086,1.086,0,0,0-1.175-.975,43.707,43.707,0,0,1-7.723.841,1.09,1.09,0,0,0-.975,1.176,1.1,1.1,0,0,0,1.175.975,43.583,43.583,0,0,0,7.723-.841,1.112,1.112,0,0,0,.975-1.176" transform="translate(155.191 434.96)"/>
      <path id="Caminho_31736" data-name="Caminho 31736" d="M380.67,818.9q-2.758-8.6-5.519-17.195c-.422-1.319-2.525-.82-2.1.505q2.758,8.6,5.519,17.195c.422,1.319,2.525.82,2.1-.505" transform="translate(142.079 443.141)"/>
      <path id="Caminho_31737" data-name="Caminho 31737" d="M421.271,765.031a12.533,12.533,0,0,0-2.188,1.071,23.03,23.03,0,0,0-6.772,6.9c-.148.215-.3.439-.437.662-.391.608-.755,1.231-1.1,1.87-.641-.313-1.288-.613-1.951-.884-.127-.057-.261-.114-.39-.165-13.173-5.373-27.735-4.113-41.624-4.751a1.093,1.093,0,0,1-.888-1.241,5.5,5.5,0,0,1,2.527-3.787,34.6,34.6,0,0,1,4.311-2.68c14.733-8,32.43-7.809,46.449,1.549.7.468,1.386.957,2.061,1.459" transform="translate(137.618 414.997)"/>
      <path id="Caminho_31738" data-name="Caminho 31738" d="M409.062,801.25a1.081,1.081,0,0,1-1.521.14,9.681,9.681,0,0,0-11.526-1.586,1.093,1.093,0,0,1-1.691-.784c-2.2-11.055,1.164-22.016,3.626-32.771a.99.99,0,0,1,.01-.215,13.017,13.017,0,0,1,.492-2.036c.047-.207.093-.414.132-.621a1.054,1.054,0,0,1,.468-.69,4.794,4.794,0,0,1,.67-.861,3.46,3.46,0,0,1,4.506-.3c2.672,1.787,4.417,5.191,5.546,8.1a54.1,54.1,0,0,1,2.586,10.158c1.283,7.289,1.326,15.278-3.3,21.468" transform="translate(155.072 417.876)"/>
      <path id="Caminho_31739" data-name="Caminho 31739" d="M525.463,947.464c.06-.181.113-.354.173-.533-5.66,4.465-13.2,4.578-20.05,3.953-8.111-.743-16.209-1.632-24.334-2.277q-24.291-1.939-48.678-2.45-24.548-.521-49.1.412c-14.878.564-30.063,1.774-44.746-1.413-11.548-2.511-26.237-8.509-28.508-21.7a1.07,1.07,0,0,1,1.255-1.233c3.826-8.962,24.688-57.946,29.553-72.29,5.788-17.052,17.162-28.283,25.883-33.1,3.706-2.051,9.066-3.81,14.931-5.284.812-.21,1.624-.406,2.45-.6a23.944,23.944,0,0,0,1.9,1.895c4.451,4.022,10.276,6.66,16.028,8.329,17.065,4.954,35.663,5.165,53.037,1.8a120.084,120.084,0,0,0,31.543-10.819c.872-.444,1.744-.9,2.6-1.368.818.391,1.63.8,2.442,1.241a44.073,44.073,0,0,1,11.66,9.014c17.02,18.605,32.44,91.573,32.965,102.886.385,8.2-3.735,16.975-11.013,23.538" transform="translate(102.502 449.355)" fill="#36f"/>
      <path id="Caminho_31740" data-name="Caminho 31740" d="M357.2,838.459q-1.509-5.889-3.016-11.777c-.357-1.394-2.592-1.084-2.232.323q1.445,5.637,2.887,11.275a44.809,44.809,0,0,0-12.819,37.551,41.606,41.606,0,0,0,3.177,11.38,1.128,1.128,0,0,0,2.077-.879,42.405,42.405,0,0,1,2.573-38.159,39.347,39.347,0,0,1,6.929-8.66,1.136,1.136,0,0,0,.424-1.053" transform="translate(122.318 458.809)" fill="#fff"/>
      <path id="Caminho_31741" data-name="Caminho 31741" d="M374.854,870.985a1.124,1.124,0,0,1-.955.985q-5.762.834-11.531,1.669c-6.322.916-12.713,2.111-19.125,1.992a28.582,28.582,0,0,1-9.037-1.436,6.452,6.452,0,0,1-1.782-.993,1.106,1.106,0,0,1-1.645-1.074c.015-.3.044-.6.059-.91a3.053,3.053,0,0,1,.174-2.767A94.739,94.739,0,0,1,333.44,854.5c.121-1.911.233-3.82.354-5.729a72.774,72.774,0,0,0-10.811,1.376c-8.142,1.6-16.088,4.105-24.275,5.517-2.067.354-4.141.639-6.231.82a14.879,14.879,0,0,1-5-.165,4.857,4.857,0,0,1-3.466-2.8c-.691-1.767-.165-3.655.4-5.375a1,1,0,0,1,1.264-.67,5.586,5.586,0,0,1,.683-1.083c1.391-1.707,3.512-2.473,5.563-3.052q4.387-1.218,8.789-2.383a8.355,8.355,0,0,1-1.384-3.225c-.052-.181-.09-.36-.135-.533-.112-.285-.217-.564-.308-.858a10.364,10.364,0,0,1-.458-3.173c0-.142.023-.279.031-.414a26.7,26.7,0,0,1,.082-4.961,1.227,1.227,0,0,1,.129-.406c-.21-.533-.437-1.06-.6-1.572a26.486,26.486,0,0,1-.916-3.887c-.046-.254-.06-.51-.091-.766a17.9,17.9,0,0,1,.069-7.263,1.2,1.2,0,0,1,.36-.637c-1.563-2.2-1.488-4.842-.743-7.384a7.055,7.055,0,0,1,2.517-5.465.909.909,0,0,1,.512-.225,17.96,17.96,0,0,1,2.323-2.646,15.186,15.186,0,0,1,8.494-3.9,14.94,14.94,0,0,1,9.241,2.088c3.1,1.753,6.127,3.549,9.389,5a71.868,71.868,0,0,0,7.6,2.879,29.2,29.2,0,0,0-2.113-3.676,1.139,1.139,0,0,1,1.3-1.744,116.518,116.518,0,0,1,18.118,8.217,102.344,102.344,0,0,1,14.539,9.691,13.145,13.145,0,0,1,4.713,6.466,42.141,42.141,0,0,1,1.03,9.224c.346,6.518.316,13.057.346,19.583s.068,13.08.1,19.621" transform="translate(85.782 438.488)" fill="#fff"/>
      <path id="Caminho_31742" data-name="Caminho 31742" d="M329.136,818.778a1.1,1.1,0,0,1-1.027.638,1.065,1.065,0,0,1-1.048-1.518c.044-.1.088-.194.13-.284,2.186-4.871-.915-9.974-4.545-13.206a33.965,33.965,0,0,0-5.708-4.211c-2.023-1.14-4.39-1.989-6.7-1.247-2.261.727-4.317,2.321-6.256,3.654-2.1,1.443-4.144,2.961-6.107,4.583-1.826,1.515-3.657,3.246-4.433,5.556a10.579,10.579,0,0,0-.046,5.506c.365,1.787.924,3.528,1.4,5.284a26.749,26.749,0,0,1,.781,3.7,13.614,13.614,0,0,0-.747,3.424,1.232,1.232,0,0,1-1.353-1.254,14.354,14.354,0,0,0-.173-2.6c-.608-3.9-2.548-7.606-2.5-11.613.067-5.476,4.42-8.9,8.432-11.939,2.3-1.735,4.672-3.393,7.137-4.891a10.437,10.437,0,0,1,7-1.849,16.682,16.682,0,0,1,7.16,3.357,33.484,33.484,0,0,1,5.828,5.1c3.236,3.715,5.072,9.143,2.775,13.81" transform="translate(90.272 440.304)"/>
      <path id="Caminho_31743" data-name="Caminho 31743" d="M348.791,827.922c-12.239,1.114-24.209,3.97-36.186,6.595-6.026,1.321-12.066,2.583-18.163,3.53-2.726.424-5.977,1.1-8.016-1.286a4.906,4.906,0,0,1,.474-6.825,10.824,10.824,0,0,1,4.059-1.924c1.731-.527,3.474-1.022,5.211-1.531l10.992-3.226c1.394-.411.562-2.509-.82-2.1q-5.226,1.536-10.452,3.068c-3.021.887-6.4,1.5-9.151,3.088a7.337,7.337,0,0,0-3.712,7.067,7.2,7.2,0,0,0,4.919,6c3.1.96,6.692-.049,9.792-.58,3.264-.563,6.515-1.2,9.757-1.88,6.487-1.356,12.941-2.869,19.43-4.226a194.69,194.69,0,0,1,22.12-3.521,1.129,1.129,0,0,0-.253-2.242" transform="translate(85.346 455.858)"/>
      <path id="Caminho_31744" data-name="Caminho 31744" d="M326.14,822.4a11.48,11.48,0,0,1-6.081,5.634c-2.532.849-5.9.434-7.291-2.118a4.292,4.292,0,0,1,1.715-5.96c1.314-.623,2.133,1.485.822,2.1a1.949,1.949,0,0,0-.784,2.23,2.679,2.679,0,0,0,2.313,1.852c2.524.426,4.832-1.258,6.275-3.169a12.935,12.935,0,0,0,2.543-6.185,6.134,6.134,0,0,0-2.7-5.9,13.3,13.3,0,0,0-7.382-2.049,46.476,46.476,0,0,0-8,.487,12.335,12.335,0,0,0-6.35,2.5,23.72,23.72,0,0,0-5.082,6.281,15.594,15.594,0,0,0-1.231,2.71,13.547,13.547,0,0,0-.747,3.424,8.2,8.2,0,0,0,2.2,6.665,1.126,1.126,0,0,1-1.381,1.779,11.108,11.108,0,0,1-3.093-8.574,13.305,13.305,0,0,1,.748-3.724,17.726,17.726,0,0,1,1.492-3.267,26.21,26.21,0,0,1,1.772-2.7c1.9-2.568,4.092-5.038,7.118-6.252a27.989,27.989,0,0,1,8.826-1.482c4.883-.287,11.7.169,14.678,4.522a7.365,7.365,0,0,1,.918,1.8,7.231,7.231,0,0,1,.282.906c.691,2.855-.215,5.974-1.58,8.494" transform="translate(90.943 446.722)"/>
      <path id="Caminho_31745" data-name="Caminho 31745" d="M311.592,815.034a1.157,1.157,0,0,0-1.247-.994l-6,.2a1.135,1.135,0,0,0-.995,1.247,1.157,1.157,0,0,0,1.247.995l6-.2a1.133,1.133,0,0,0,.994-1.247" transform="translate(98.172 451.408)"/>
      <path id="Caminho_31746" data-name="Caminho 31746" d="M307.5,814.433a1.141,1.141,0,0,0-1.578-.23,16.583,16.583,0,0,0-5.2,7.023,1.128,1.128,0,0,0,2.077.881,14.266,14.266,0,0,1,4.469-6.1,1.148,1.148,0,0,0,.23-1.578" transform="translate(96.472 451.372)"/>
      <path id="Caminho_31747" data-name="Caminho 31747" d="M309.415,807.983a3.633,3.633,0,0,0-4.7-2.258,7.994,7.994,0,0,0-2.01,1.378c-.135.113-.274.223-.416.328-.085.062-.174.117-.261.178a1.889,1.889,0,0,1-.205.1c-.965-.029-1.6.4-1.658,1a1.148,1.148,0,0,0,.954,1.278,3.368,3.368,0,0,0,2.39-.657c.58-.4,1.071-.908,1.653-1.3.057-.039.119-.073.176-.112.16-.077.235-.1.308-.134.122-.026.209-.032.29-.046a2.951,2.951,0,0,1,.293.031c.155.062.251.08.323.112s.318.194.083.031c.095.067.357.192.4.312-.1-.109-.126-.13-.067-.065.134.161.178.232.227.3.047.137.091.238.122.347a1.133,1.133,0,0,0,1.461.641,1.159,1.159,0,0,0,.641-1.461" transform="translate(96.168 446.022)"/>
      <path id="Caminho_31748" data-name="Caminho 31748" d="M326.97,807.148a1.767,1.767,0,0,1-.127.714c-.791,1.782-2.3.858-2.519-.706A12.516,12.516,0,0,0,322.376,802a14.685,14.685,0,0,0-3.058-3.368,14.456,14.456,0,0,0-2.038-1.412,16.847,16.847,0,0,0-14.366-1.226c-5.729,2.2-12.208,9.081-9.126,15.644.616,1.316-1.488,2.128-2.1.819-1.722-3.668-.752-7.892,1.3-11.208a18.961,18.961,0,0,1,18.951-8.337,17.445,17.445,0,0,1,1.738.383,18.313,18.313,0,0,1,3.564,1.339,17.819,17.819,0,0,1,4.893,3.5c.339.346.662.7.97,1.068a17.071,17.071,0,0,1,2.082,3.172c.505.991,1.775,3.292,1.79,4.774" transform="translate(90.266 437.931)"/>
      <path id="Caminho_31749" data-name="Caminho 31749" d="M388.782,809.835a307.285,307.285,0,0,0-31.229,5.015,23.674,23.674,0,0,1-1.9-1.9,297.906,297.906,0,0,1,32.9-5.359Z" transform="translate(131.147 447.345)"/>
      <path id="Caminho_31750" data-name="Caminho 31750" d="M371.273,804.87a38.018,38.018,0,0,1-7.035,11.334c-.1.1-.156.179-.231.248a1.049,1.049,0,0,1-.329.232c-.885,1.9-1.6,3.851-2.525,5.724a4.671,4.671,0,0,1-2.374,2.4,15.281,15.281,0,0,1-3.371.75c-2.428.419-4.855.884-7.289,1.228-4.428.629-9.267.892-13.409-1.1a18.454,18.454,0,0,1-5.537-4.4c-1.617-1.761-3.213-3.574-4.645-5.485a23.191,23.191,0,0,1-3.453-6.233c-.831-2.382-1.319-4.87-2.382-7.177a1.335,1.335,0,0,1-.1-.4,9.161,9.161,0,0,0-1.1-1.109,7.173,7.173,0,0,0-8.121-1.123c-1.1.623-1.894-.884-1.25-1.753a1.941,1.941,0,0,1-1.934-1.229,1.055,1.055,0,0,1-.029-.771c-.217-.742.173-1.663,1.123-1.475.742.15,1.484.292,2.225.442a22.051,22.051,0,0,1,8.944,1.348c.091-1.027.173-2.044.262-3.072a1.156,1.156,0,0,1,1.709-.831,1.31,1.31,0,0,1,.629-.194c.427-.046.869-.031,1.3-.046l2.778-.1c1.911-.067,3.83-.142,5.747-.209,6.629-.24,13.274-.517,19.919-.367,3.3.075,6.585.315,9.88.584a30.821,30.821,0,0,0,9.635-.344,1.078,1.078,0,0,1,1.048.426c2.375,3.978,1.7,8.623-.075,12.7" transform="translate(99.909 437.179)" fill="#fff"/>
      <path id="Caminho_31751" data-name="Caminho 31751" d="M369.053,792.45a1.988,1.988,0,0,0-1.06-1.157c-1.413-.564-33.529-.654-52.548-.654h-.414l-.308.264c-2.346,1.953-3.15,11.019.541,19.546,4.082,9.427,13.968,15.974,16.2,17.087,1.151.579,4.857.835,9.022.835a96.648,96.648,0,0,0,10.224-.512c.819-.09,1.564-.2,2.2-.316a6.06,6.06,0,0,0,2.263-.706,4.452,4.452,0,0,0,.51-.5c.489-.541,1.174-1.405,1.955-2.481,3.2-4.345,8.2-12.1,9.834-15.974,2.074-4.925,2.646-12.872,1.578-15.428M365.4,807c-1.436,3.42-5.338,9.51-8.262,13.69-.677.962-1.3,1.828-1.826,2.534a16.535,16.535,0,0,1-1.511,1.828,5.7,5.7,0,0,1-1.263.323c-.593.1-1.345.2-2.2.277-5.675.564-16.088.753-17.862-.135-2.8-1.4-11.6-7.78-15.141-15.959-3.375-7.8-2.413-15.005-1.382-16.659,19.177.006,47.587.134,51.06.487.624,1.52.443,8.729-1.609,13.615" transform="translate(104.091 436.66)"/>
      <path id="Caminho_31752" data-name="Caminho 31752" d="M319.258,794.33a16.884,16.884,0,0,0-14.368-.721,1.129,1.129,0,0,0,.877,2.079,14.76,14.76,0,0,1,12.669.742,1.132,1.132,0,0,0,1.461-.639,1.157,1.157,0,0,0-.639-1.461" transform="translate(98.728 437.733)"/>
      <path id="Caminho_31753" data-name="Caminho 31753" d="M317.858,799.017a1.169,1.169,0,0,1-1.578.225,14.31,14.31,0,0,0-3.42-1.48,14.625,14.625,0,0,0-3.782-.572,14.447,14.447,0,0,0-2.036-1.412,1.06,1.06,0,0,1,.908-.82,17.275,17.275,0,0,1,9.684,2.481,1.13,1.13,0,0,1,.225,1.578" transform="translate(100.506 439.369)"/>
      <path id="Caminho_31754" data-name="Caminho 31754" d="M319.144,805.52a19.785,19.785,0,0,1-4.358-.452,1.13,1.13,0,0,0-.818.23,1.147,1.147,0,0,0-.429.763,1.159,1.159,0,0,0,.993,1.249,19.873,19.873,0,0,0,4.358.452,1.234,1.234,0,0,0,.818-.23,1.128,1.128,0,0,0-.564-2.012" transform="translate(104.6 445.743)"/>
      <path id="Caminho_31755" data-name="Caminho 31755" d="M322.506,808.371a1.147,1.147,0,0,0-1.477-.6,1.63,1.63,0,0,1-.577.167c-.256.039-.515.059-.774.073-.556.033-1.114.054-1.669.069-1.047.028-2.185.018-3.285-.016a1.153,1.153,0,0,0-1.249.993,1.141,1.141,0,0,0,.993,1.247c1.288.042,2.576.042,3.864.008a9.662,9.662,0,0,0,3.575-.463,1.14,1.14,0,0,0,.6-1.477" transform="translate(104.56 447.403)"/>
      <path id="Caminho_31756" data-name="Caminho 31756" d="M314.061,848.732c-.737-.15-1.474-.308-2.2-.481,1.961-10.322,3.345-18.886,2.931-21.1l2.219-.412c.466,2.5-.768,10.538-2.948,22" transform="translate(103.544 459.41)"/>
      <path id="Caminho_31757" data-name="Caminho 31757" d="M341.91,825.7c-.1,6.668-.481,13.336-.668,20.012q-.193,7.1-.264,14.208c-.743.083-1.495.158-2.24.225q.069-8.094.308-16.184c.2-6.586.594-13.171.639-19.758a90.862,90.862,0,0,0-.391-9.487c-.1-1.037-.225-2.082-.375-3.112.527-.706,1.149-1.572,1.826-2.533.129.639.233,1.27.331,1.917.06.413.121.827.173,1.247a90.207,90.207,0,0,1,.662,13.465" transform="translate(120.485 448.277)"/>
      <path id="Caminho_31758" data-name="Caminho 31758" d="M364.034,913.06a22.4,22.4,0,0,1-4.562,9.011,25.436,25.436,0,0,1-8.968,6.239,55.449,55.449,0,0,1-11.5,4.165,37.453,37.453,0,0,1-12.178.579c-5.809-.636-11.72-.766-15.579-5.846-2.578-3.391-3.7-7.654-4.46-11.844-3-16.585.276-32.575,3.636-48.772,1.586-7.646,3.414-16.464,4.963-24.456.142-.743.285-1.48.421-2.2.729.173,1.466.331,2.2.483,1.766.346,3.556.623,5.344.833,8.947,1.06,18.036.73,27,.173q4.644-.281,9.268-.729c.745-.067,1.5-.144,2.242-.225l-.023,2.278c-.008,1.353-.016,2.715-.023,4.068-.064,11.43,0,24.037,2.367,35.217a73.324,73.324,0,0,1,1.353,20.918,56.214,56.214,0,0,1-1.5,10.113" transform="translate(99.599 467.727)" fill="#36f"/>
      <path id="Caminho_31759" data-name="Caminho 31759" d="M339.172,840.756a314.294,314.294,0,0,0,.321,38.415c.1,1.433,2.356,1.527,2.255.077a314.282,314.282,0,0,1-.321-38.415,1.129,1.129,0,0,0-2.255-.077" transform="translate(120.483 467.584)" fill="#fff"/>
      <path id="Caminho_31760" data-name="Caminho 31760" d="M473.021,900.607c-4.281-1.625-13.607-5.465-24.406-9.911-35.065-14.433-66.978-27.4-72.269-27.585-3.226-.121-11.241,4.9-12.814,5.911l.6.946-86.349,39.9-.812-.778a5.375,5.375,0,0,0-1.36,4.835c.352,1.772,1.854,5.147,7.954,7.837,3.456,1.523,22.2,8.885,42.039,16.68,23.71,9.316,50.582,19.872,55.8,22.207a23.805,23.805,0,0,0,9.937,2.108c7.379,0,16.225-3.031,28.39-9.446,10.258-5.408,29.8-16.452,45.5-25.327,10.069-5.69,18.021-10.186,20.711-11.6s3.932-2.982,3.821-4.79c-.2-3.314-5.21-6.6-16.743-10.98" transform="translate(80.627 482.337)"/>
      <path id="Caminho_31761" data-name="Caminho 31761" d="M400.681,890.528c-2.843,3.207-11.533,6.1-13.546,6.914a22.681,22.681,0,0,1-5.571,1.8,10.328,10.328,0,0,1-5.613-1.011c-3.654-1.634-7.214-3.473-10.881-5.083q-11.081-4.876-22.606-8.62a1.108,1.108,0,0,1-.218-1.979.988.988,0,0,1,.543-1.428c5.025-1.943,10.035-3.911,15.076-5.817a11.1,11.1,0,0,1,6.735-.682c2.269.512,4.518,1.1,6.761,1.7q6.713,1.8,13.318,4.012,6.679,2.228,13.219,4.871c4.139,1.671,4.36,3.543,2.785,5.318" transform="translate(122.375 489.433)" fill="#fff"/>
      <path id="Caminho_31762" data-name="Caminho 31762" d="M364.467,884.927c-6.378-1.991-13.662-7.931-19.045-7.095s-47.134,16.552-47.439,18.649,75.467,33.17,75.467,33.17l8.163,3.151a10.657,10.657,0,0,0,4.977-.132c2.351-.748,34.025-17.819,36.255-19.3,3.963-2.623-4.433-6.043-9.955-8.647-2.84-1.339-46.029-18.946-48.424-19.8" transform="translate(94.797 491.566)" fill="#b3d0ff"/>
      <path id="Caminho_31763" data-name="Caminho 31763" d="M392.872,927.18c-1.428-1.135-3.059,1.18-1.635,2.31a2.438,2.438,0,0,1,.372,2.923,3.96,3.96,0,0,1-3.166,2.333,12.732,12.732,0,0,1-5.654-.667c-1.994-.577-3.965-1.24-5.921-1.933-8.142-2.889-16.1-6.332-24.1-9.585l-48.8-19.839L276.3,891.476c-1.687-.686-2.651,1.976-.962,2.662l52.719,21.432,26.361,10.716c8.505,3.458,16.963,7.193,25.733,9.947,3.782,1.188,8.96,2.726,12.328-.3,2.511-2.253,3.248-6.487.39-8.756" transform="translate(79.969 500.146)" fill="#fff"/>
      <path id="Caminho_31764" data-name="Caminho 31764" d="M460.735,889.77a115.16,115.16,0,0,1-1.376,13.825c-.623,4.262-1.029,8.773-2.586,12.826a1.133,1.133,0,0,1-1.18.706,37.43,37.43,0,0,1-8.983-3.451c-2.723-1.427-5.323-3.067-7.94-4.668q-4.781-1.861-9.457-3.962-5.265-2.367-10.382-5.029-2.514-1.308-5-2.683a12.246,12.246,0,0,0-2.444-1.172,8.586,8.586,0,0,0-2.811-.2c-3.805.158-7.548,1.068-11.375.88a9.4,9.4,0,0,1-4.955-1.264,3.106,3.106,0,0,1-1.18-1.624,14,14,0,0,1-11.246-.714,11.1,11.1,0,0,1-6.022,1.413,10.335,10.335,0,0,1-4.69-1.407,2.953,2.953,0,0,1-.518-.39,7.546,7.546,0,0,1-5.789,1.262,9.473,9.473,0,0,1-6.458-5.156c-1.616-3.06-1.691-6.683-1.247-10.036a41.788,41.788,0,0,1,2.33-9.1,6.723,6.723,0,0,0-.774.069,60.669,60.669,0,0,0-12.17,11.375,1.2,1.2,0,0,1-.631.421c-.091.2-.2.4-.279.608-1.345,3.286-2.03,6.8-3.345,10.111-.158.4-.346.783-.512,1.18a.856.856,0,0,1,.241.572,7.759,7.759,0,0,1-5.119,7.765,1.218,1.218,0,0,1-1.113-.179,5.586,5.586,0,0,1-2.5-.218c-4.218-1.368-5.352-6.12-4.85-10.051.6-4.586,2.744-8.991,4.677-13.148a30.19,30.19,0,0,1,7.54-10.667c.871-.737,1.8-1.436,2.744-2.1a28.383,28.383,0,0,1,5.841-4.209c.631-.414,1.27-.82,1.924-1.2a74.49,74.49,0,0,1,18.178-7.511c6.706-1.841,8.864-.409,16.65-.409.414,0,4.571.259,4.646.561q5.808.406,11.57,1.232a160.3,160.3,0,0,1,37.287,10.141,80.678,80.678,0,0,1,13.9,3.947c2.051.8,4.074,1.678,6.052,2.646a2.343,2.343,0,0,1,1.247.918,8.818,8.818,0,0,1,.443,1.661c.256,1.045.481,2.09.685,3.142a62.113,62.113,0,0,1,.977,13.292" transform="translate(112.62 475.148)" fill="#fff"/>
      <path id="Caminho_31765" data-name="Caminho 31765" d="M380.416,853.585a61.432,61.432,0,0,0-32.15,7.945A42.8,42.8,0,0,0,331.6,879.449a39.007,39.007,0,0,0-3.812,12,11.65,11.65,0,0,0,.77,6.839,5.961,5.961,0,0,0,4.343,3.277c4.39.52,6.12-5.359,7.128-8.531,1.378-4.36,2.573-8.778,5.2-12.575,3.186-4.586,7.653-7.972,12.46-10.745,1.073-.631,2.155-1.218,3.253-1.782-.527,1.105-1.012,2.224-1.469,3.355-1.068.6-2.126,1.233-3.148,1.906-1.1.716-2.172,1.475-3.2,2.284a26.955,26.955,0,0,0-8.9,11.89c-1.6,4.32-2.287,9.365-5.059,13.161a7.522,7.522,0,0,1-5.038,3.274,7.293,7.293,0,0,1-5.747-2.085c-3.673-3.4-3.3-8.777-2.325-13.243a44.282,44.282,0,0,1,4.614-12.053,45.33,45.33,0,0,1,19.345-18.39,64.674,64.674,0,0,1,30.529-6.7c1.462.033,1.324,2.284-.122,2.251" transform="translate(112.071 474.901)"/>
      <path id="Caminho_31766" data-name="Caminho 31766" d="M402.76,963.818a20.751,20.751,0,0,1-1.188-4.2c-.51-2.565-1.28-6.442-5.931-19.313-1.41-3.9-3.158-9.1-5.007-14.6-4.245-12.628-9.526-28.345-14.267-38.976-4.338-9.733-15.146-15.19-15.255-15.243-5-2.485-37.041-15.605-65.568-26.467-.2-.072-17.392-6.043-26.023-8.527-4.878-1.405-7.767.127-9.334,1.66-2.6,2.545-3.453,7.012-2.224,11.662.3,1.115.7,2.7,1.2,4.659,2.667,10.431,8.217,32.137,13.717,47.682.931,2.631,1.728,4.959,2.436,7.025,4.291,12.537,5.445,15.907,13.418,19.336,12.532,5.391,94.038,38.149,101.368,40.433a26.937,26.937,0,0,0,7.41,1.317,6.435,6.435,0,0,0,4.788-1.555c.76-.815,1.456-2.323.458-4.891" transform="translate(69.224 465.212)"/>
      <path id="Caminho_31767" data-name="Caminho 31767" d="M375.924,873.515a1.128,1.128,0,0,0-.706,2.142,3.345,3.345,0,0,1,1.912,3.233,7.083,7.083,0,0,1-1.477,4.281,11.653,11.653,0,0,1-8.189,4.444c-2.832.276-6.218-.489-7.883-3-2.134-3.218-.631-7.562.706-10.778a39.435,39.435,0,0,1,6.966-11.06,1.166,1.166,0,0,0,.112-1.591,1.136,1.136,0,0,0-1.591-.113,42.741,42.741,0,0,0-7.506,11.764c-1.705,4.016-3.173,9.092-.53,13.049,2.144,3.21,6.246,4.283,9.912,3.963a13.859,13.859,0,0,0,9.956-5.538c2.247-3.179,2.863-9.236-1.684-10.8" transform="translate(131.55 480.882)"/>
      <path id="Caminho_31768" data-name="Caminho 31768" d="M372.67,867.388a1.157,1.157,0,0,0-1.591-.112,18.277,18.277,0,0,0-5.427,6.322,1.155,1.155,0,0,0,.313,1.564,1.139,1.139,0,0,0,1.563-.315,17.6,17.6,0,0,1,2.227-3.318l.108-.122c.178-.2.287-.313.4-.427.232-.24.471-.474.716-.7a17.454,17.454,0,0,1,1.583-1.3,1.134,1.134,0,0,0,.112-1.591" transform="translate(137.343 484.797)"/>
      <path id="Caminho_31769" data-name="Caminho 31769" d="M363.387,888.323a7.871,7.871,0,0,1-8.879-1.373c-2.5-2.453-2.714-5.9-2.22-9.19a34.7,34.7,0,0,1,8.256-17.484,1.134,1.134,0,0,0-.315-1.563,1.154,1.154,0,0,0-1.564.315,36.747,36.747,0,0,0-8.026,15.512c-.706,2.956-1.246,6.176-.488,9.176a10.054,10.054,0,0,0,14.226,6.634,1.129,1.129,0,0,0-.991-2.026" transform="translate(127.448 479.449)"/>
      <path id="Caminho_31770" data-name="Caminho 31770" d="M357.014,891.09a7.822,7.822,0,0,1-4.659.687,10.635,10.635,0,0,1-7.387-4.239,13.34,13.34,0,0,1-1.947-9.379,38.7,38.7,0,0,1,2.274-8.732c.189-.536.393-1.068.6-1.591.245-.631.5-1.262.77-1.886a69.586,69.586,0,0,1,4.061-8.137c.729-1.26,2.605,0,1.876,1.244q-1.455,2.5-2.685,5.109c-.527,1.105-1.014,2.224-1.472,3.357-.072.176-.145.362-.218.538a53.529,53.529,0,0,0-2.565,7.987,14.967,14.967,0,0,0,.02,7.98A8.066,8.066,0,0,0,350.2,888.9a8.68,8.68,0,0,0,3.344.688,7.133,7.133,0,0,0,1.691-.205c.245-.059.8-.437.938-.331-1.148-.885.1-2.76,1.252-1.875a2.329,2.329,0,0,1-.409,3.914" transform="translate(123.102 478.669)"/>
      <path id="Caminho_31771" data-name="Caminho 31771" d="M433.886,870.813c-2.03-.881-4.082-1.73-6.141-2.542A214.974,214.974,0,0,0,359.3,853.507c-1.449-.068-1.187-2.309.256-2.24q10.014.5,19.952,1.909a219.231,219.231,0,0,1,34.349,7.8q9.867,3.089,19.4,7.12c.217.9.435,1.811.631,2.721" transform="translate(132.839 474.873)"/>
      <path id="Caminho_31772" data-name="Caminho 31772" d="M389.191,869.956c-3.983,6.2-12.374,4.738-18.426,3.42-1.417-.308-1.665,1.935-.254,2.242,4.011.872,8.227,1.733,12.32.88A12.537,12.537,0,0,0,391,871.306c.779-1.213-1.021-2.574-1.806-1.35" transform="translate(139.92 486.351)"/>
      <path id="Caminho_31773" data-name="Caminho 31773" d="M378.8,877.858c.36.2,22.764,12.426,43.317,22.275-.21.729-.443,1.459-.7,2.18-20.26-9.674-42.227-21.673-43.7-22.477a1.127,1.127,0,1,1,1.083-1.978" transform="translate(144.686 491.547)" fill="#fff"/>
      <path id="Caminho_31774" data-name="Caminho 31774" d="M385.941,878.225c-3.5.349-6.994.773-10.5,1.034a14.626,14.626,0,0,1-9.355-2.216c-1.207-.8-2.565,1.006-1.352,1.806a16.61,16.61,0,0,0,9.925,2.7c3.867-.142,7.752-.712,11.6-1.1,1.446-.143,1.12-2.375-.323-2.232" transform="translate(136.573 490.994)"/>
      <path id="Caminho_31775" data-name="Caminho 31775" d="M467.416,910.985c-.219,1.007-.489,2.007-.783,2.992-.15.489-.3.978-.473,1.466-.046.046-.091.091-.135.129a38.273,38.273,0,0,1-3.248,2.586,37.449,37.449,0,0,1-21.786,6.939,38.71,38.71,0,0,1-6.15-.5c-5.608-.91-16.623-5.541-28.485-11.141-.677-.323-1.361-.646-2.053-.977.256-.722.489-1.451.7-2.181.046-.15.09-.292.135-.444,4.353-14.891,3.158-30.567-.218-45.549-.2-.91-.414-1.819-.631-2.721.864.36,1.728.729,2.586,1.112a1.012,1.012,0,0,1,.443-.113c4.382-.21,8.8.872,13.044,1.857s8.442,2.15,12.584,3.526a126.806,126.806,0,0,1,21.2,9.156,26.908,26.908,0,0,1,8.09,6.556,27.732,27.732,0,0,1,4.57,8.4,34.758,34.758,0,0,1,.61,18.907" transform="translate(161.804 481.377)" fill="#36f"/>
      <path id="Caminho_31776" data-name="Caminho 31776" d="M441.556,873.365q-12.663-3.428-25.387-6.653c-.8-.2-1.6-.406-2.406-.616q-4.441-1.115-8.9-2.211c-1.4-.346-1.151-2.594.254-2.247q4.084,1,8.165,2.036,1.208.293,2.413.61,13.374,3.372,26.682,6.976c1.405.383.562,2.48-.82,2.1" transform="translate(161.577 481.386)" fill="#fff"/>
      <path id="Caminho_31777" data-name="Caminho 31777" d="M415.388,880.726c-.8-.2-1.6-.406-2.4-.616-.158-.805-.324-1.616-.483-2.421l-7.307-37.077c-.277-1.428,1.955-1.744,2.234-.323q3.754,19,7.488,38.008c.156.814.315,1.617.473,2.429" transform="translate(162.359 467.375)" fill="#fff"/>
      <path id="Caminho_31778" data-name="Caminho 31778" d="M408.916,758.107a1.461,1.461,0,0,0-1.234-.465,3.642,3.642,0,0,0-2.576,1.492c-.134.153-.259.315-.39.471-.044-.274-.077-.548-.13-.82a3.939,3.939,0,0,0-.574-1.779,1.414,1.414,0,0,0-2.247.176,2.912,2.912,0,0,0-.412,1.782,7.779,7.779,0,0,0,.174,1.727,3.189,3.189,0,0,0,.626,1.34l-.214.147a1.11,1.11,0,0,0-.426,1.053,1.446,1.446,0,0,0,1.968,1.1,1.121,1.121,0,0,0,.668-.843,1.156,1.156,0,0,0,.655-.4c.077-.094.152-.189.228-.282,1.118-.752,2.237-1.507,3.324-2.3a2.016,2.016,0,0,0,.866-1.374,1.439,1.439,0,0,0-.308-1.026" transform="translate(159.952 415.157)"/>
      <path id="Caminho_31779" data-name="Caminho 31779" d="M360.684,916.791a1.144,1.144,0,0,0-1.218-.646,2.3,2.3,0,0,0-.967.431,1.794,1.794,0,0,0-.7.313,2.892,2.892,0,0,0-.981,1.86,2.528,2.528,0,0,0,.047.919,1.824,1.824,0,0,0,.721,1.19,2.141,2.141,0,0,0,2.128.073,2.728,2.728,0,0,0,.874-.721,2.525,2.525,0,0,0,.46-1.114,4.06,4.06,0,0,0-.364-2.307" transform="translate(131.868 515.755)" fill="#fff"/>
      <path id="Caminho_31780" data-name="Caminho 31780" d="M374.85,911.071a1.155,1.155,0,0,0-1.588-.158,81.828,81.828,0,0,1-9.761,5.268,1.128,1.128,0,0,0,.931,2.054,86.249,86.249,0,0,0,10.26-5.576,1.136,1.136,0,0,0,.158-1.588" transform="translate(135.691 512.318)" fill="#fff"/>
      <path id="Caminho_31781" data-name="Caminho 31781" d="M395.023,898.534a.826.826,0,0,0-.2-.386l-.22-.206a1.12,1.12,0,0,0-.554-.2l-.289.012a1.122,1.122,0,0,0-.523.24l-.37.39a.851.851,0,0,0-.275.355.838.838,0,0,0-.134.419,1.251,1.251,0,0,0,.251.813l.222.205a1.13,1.13,0,0,0,.553.2l.289-.013a1.142,1.142,0,0,0,.525-.238c.122-.13.246-.261.368-.39a.866.866,0,0,0,.277-.355.847.847,0,0,0,.132-.421.856.856,0,0,0-.054-.426" transform="translate(154.343 504.165)" fill="#fff"/>
      <path id="Caminho_31782" data-name="Caminho 31782" d="M396.878,896.029c-1.435.038-1.648,2.286-.2,2.247,1.435-.038,1.648-2.284.2-2.247" transform="translate(156.384 503.087)" fill="#fff"/>
      <path id="Caminho_31783" data-name="Caminho 31783" d="M302.717,879.127c2.952,4.335,2.814,9.571-.308,11.7s-8.044.334-10.995-4-2.814-9.573.307-11.7,8.046-.334,11,4" transform="translate(89.316 489.349)" fill="#fff"/>
      <path id="Caminho_31784" data-name="Caminho 31784" d="M331.9,775.484a10.932,10.932,0,0,0-2.926-3.6,14.456,14.456,0,0,1-3.528-3.5c-.921-1.617-.395-3,.561-4.428a9.547,9.547,0,0,0,2-4.328,1.129,1.129,0,0,0-2.242-.254c-.135,1.456-1.164,2.571-1.907,3.765a6.115,6.115,0,0,0-1.114,4.369c.677,3.712,4.39,5.042,6.438,7.786a7.585,7.585,0,0,1,.3,8.238c-.929,1.5-2.465,2.388-3.7,3.606a8.032,8.032,0,0,0-2.207,3.89,8.719,8.719,0,0,0,2.876,8.761c1.128.915,2.476-.894,1.35-1.806a6.468,6.468,0,0,1-1.837-7.113,8.551,8.551,0,0,1,2.992-3.5,10.542,10.542,0,0,0,2.853-3.428,9.961,9.961,0,0,0,.091-8.46" transform="translate(110.354 416.343)" fill="#b3d0ff"/>
      <path id="Caminho_31785" data-name="Caminho 31785" d="M331.682,784.052c.743-2.261,2.742-3.836,4.017-5.778,1.324-2.017,2.159-4.452,1.161-6.785a1.129,1.129,0,0,0-2.079.877c.951,2.222-.726,4.487-2.08,6.127-1.389,1.681-2.861,3.385-3.349,5.569a8.355,8.355,0,0,0,1.572,6.381c1.113,1.663,4.157,3.791,3.1,6.065-.61,1.317,1.492,2.139,2.1.823,1.146-2.475-.474-4.747-2.056-6.542-1.6-1.821-3.223-4.2-2.39-6.737" transform="translate(114.476 424.169)" fill="#b3d0ff"/>
      <path id="Caminho_31786" data-name="Caminho 31786" d="M339.424,788.835a18.641,18.641,0,0,0,2.882-8.041,12.086,12.086,0,0,0-1.909-7.881,15.2,15.2,0,0,1-2.185-3.787,8.842,8.842,0,0,1-.253-3.786,15.174,15.174,0,0,1,4.1-8.068c.983-1.066-.83-2.409-1.8-1.35-3.887,4.214-6.363,10.841-3.156,16.145a24.393,24.393,0,0,1,2.468,4.12,10.16,10.16,0,0,1,.482,4.5,15.093,15.093,0,0,1-1.224,4.514c-.641,1.467-1.565,2.758-2.333,4.156-1.449,2.635-1.758,6.508,1.451,7.995,1.316.61,2.137-1.492.822-2.1a2.494,2.494,0,0,1-1.112-2.594,9.736,9.736,0,0,1,1.769-3.823" transform="translate(118.411 414.531)" fill="#b3d0ff"/>
      <path id="Caminho_31787" data-name="Caminho 31787" d="M486.267,845.676a19.759,19.759,0,0,0-11.277-10.827c-5.087-1.859-11.816-2.126-15.305-6.862-1.8-2.444-1.7-5.556-1.5-8.44a28.8,28.8,0,0,0-.271-8.592,20.971,20.971,0,0,0-8.784-12.746c-4.518-2.946-9.927-3.67-15.061-4.92a25.622,25.622,0,0,1-7.354-2.757,15.554,15.554,0,0,1-5.3-5.517c-2.706-4.637-3.544-10.132-6.246-14.751a4.127,4.127,0,0,0-2.9-2.225c-1.431-.241-1.686,2-.256,2.24,1.087.184,1.614,1.87,2,2.732.522,1.179.986,2.382,1.433,3.592.91,2.455,1.746,4.945,2.864,7.317a21.22,21.22,0,0,0,4.2,6.185,18.458,18.458,0,0,0,6.448,3.991c4.836,1.839,10.08,2.23,14.929,4.022a18.644,18.644,0,0,1,10.775,10.121,17.966,17.966,0,0,1,1.485,7.46c-.057,2.9-.574,5.807-.189,8.7.752,5.659,5.491,8.8,10.577,10.351,2.9.887,5.907,1.43,8.7,2.62a16.179,16.179,0,0,1,6.047,4.491,20.528,20.528,0,0,1,4.6,14.458,30.538,30.538,0,0,1-6.331,16.163,17.6,17.6,0,0,1-6.648,5.573c-2.962,1.4-6.04,2.592-9.06,3.869l-4.607,1.948a1.128,1.128,0,0,0,.877,2.077q4.779-2.017,9.557-4.038c2.9-1.224,5.926-2.351,8.342-4.428a27.589,27.589,0,0,0,5.577-7,33.66,33.66,0,0,0,3.6-8.414,24.847,24.847,0,0,0-.929-16.39" transform="translate(166.073 422.403)"/>
    </g>
  </g>
</svg>
